<?xml version="1.0" encoding="UTF-8"?>
<svg id="Layer_1" data-name="Layer 1" xmlns="http://www.w3.org/2000/svg" viewBox="0 0 507.19 312.81">
  <defs>
    <style>
      .cls-1 {
        fill: none;
        stroke: hsl(183, 30%, 60%);
        stroke-miterlimit: 10;
        stroke-width: 5px;
      }
    </style>
  </defs>
  <path class="cls-1" d="M299.58,203.62c-15.62,41.33-52.17,87.72-114.8,97.83-42.96,6.94-81.23,1-115.55-21.91-34.32-22.91-55.53-55.2-63.63-96.87-8.03-41.29-.47-79.1,22.65-113.44C51.37,34.9,83.59,13.71,124.9,5.68c41.82-8.13,79.91-.68,114.25,22.36,34.34,23.04,55.67,51.84,63.57,92.48M42.36,102.2c-8.98,19.27-12.48,39.87-10.49,61.81,1.99,21.94,9.23,41.72,21.72,59.34,12.49,17.62,29.18,31.31,50.09,41.05,30.94,14.43,62.08,15.89,93.4,4.38,31.32-11.51,54.04-32.4,68.15-62.66,9.42-20.21,13.25-41.2,11.46-62.97-1.78-21.77-8.93-41.43-21.45-59-12.52-17.56-29.16-31.19-49.95-40.89s-41.6-13.53-62.81-11.69c-21.2,1.84-40.9,9.17-59.1,21.98-18.2,12.81-31.87,29.03-41.02,48.65Z"/>
  <path class="cls-1" d="M302.55,122.04L356.2,2.81h7.03l133.98,301.67h-31.01l-45.19-99.26h-123.77m62.36-138.32l-49.23,109.2h98.22l-48.99-109.2Z"/>
</svg>
