<?xml version="1.0" encoding="utf-8"?>
<!-- Generator: Adobe Illustrator 27.0.1, SVG Export Plug-In . SVG Version: 6.00 Build 0)  -->
<svg version="1.1" id="visual" xmlns="http://www.w3.org/2000/svg" xmlns:xlink="http://www.w3.org/1999/xlink" x="0px" y="0px"
	 viewBox="0 0 900 600" style="enable-background:new 0 0 900 600;" xml:space="preserve">
<style type="text/css">
	.st0{fill:#B87A7A;}
	.st1{fill:#B78096;}
	.st2{fill:#AB8AAF;}
	.st3{fill:#9797C0;}
	.st4{fill:#82A3C6;}
	.st5{fill:#76ADC3;}
	.st6{fill:#7AB5B8;}
</style>
<g>
	<path class="st0" d="M0.1,71.4l15-6.3c15-6.3,45.8-21.3,75.8-16.5c30,4.7,47.3,31.9,77.3,23.7s74.7-27,104.7-26.1
		s57.2,19.1,87.2,32.6s71.5,5,102.6-11c46.2-22.2,72.2-1,95.8,8.3c28.1,11.1,41.6-26.7,71.6-16.6s60-6.6,90-5.1s60,21.3,90,15.4
		s60-37.4,75-53.3l15-15.8v581.9h-15c-15,0-45,0-75,0s-60,0-90,0s-60,0-90,0s-60,0-90,0s-60,0-90,0s-60,0-90,0s-60,0-90,0
		s-60,0-90,0s-60,0-90,0s-60,0-75,0h-15L0.1,71.4L0.1,71.4z"/>
	<path class="st1" d="M-0.1,82.3l17.8,12.1c20.7,13.6,40.7,23.1,72.2,43.5c31.2,20.2,70.3,39,115.6,39c41.3-9.8,61.8-20.4,93.8-36.9
		c79.1-40,120.8-37.1,150.8-37.8c30-0.8,40.3,23.6,64.3,31.1c36,9.3,43.1-1.8,69.8-19.1c42.2-27.1,54.7-15.6,68.9-8.4
		c30,6.2,36.8,22.2,66.8,27.3s60,34.1,90,35.8s60-23.8,75-36.5l15-12.8v480.3h-15c-15,0-45,0-75,0s-60,0-90,0s-60,0-90,0s-60,0-90,0
		s-60,0-90,0s-60,0-90,0s-60,0-90,0s-60,0-90,0s-60,0-90,0s-60,0-75,0h-15L-0.1,82.3L-0.1,82.3z"/>
	<path class="st2" d="M0.6,212.1l15-14.4c15-14.5,47.4-59.8,77.4-72.4s62.1-0.6,92.1,13.8s59.8,39.2,85.5,50.7
		c27.6,12.4,62,26.3,95.2,26.3c39.7,1.2,73.7-36.9,103.7-30.4s41.1,19.4,71.1,23.1c30,3.7,60,24,90,34.6s60,11.3,90-9.9
		s60-64,90-70.7s60,23.1,75,37.9l15,14.9v384.6h-15c-15,0-45,0-75,0s-60,0-90,0s-60,0-90,0s-60,0-90,0s-60,0-90,0s-60,0-90,0
		s-60,0-90,0s-60,0-90,0s-60,0-90,0s-60,0-75,0h-15L0.6,212.1L0.6,212.1z"/>
	<path class="st3" d="M-0.1,273.2l15,6.8c15,6.9,42.6,9.7,67.1-7c30.3-20.7,51.8-31.1,81.8-33.5s57.1,31.8,87.1,42.3
		s100.7-28,130.4-17c35,14.1,79.4,22.1,109.4,21.8c30-0.4,47.3-43.4,65.5-20.9c26.7,33,43.9,69.2,73.9,58.5c30-10.8,60-40.6,90-43.1
		s60,22.3,90,38.7c30,16.3,60,24.2,75,28.2l15,4v248.2h-15c-15,0-45,0-75,0s-60,0-90,0s-60,0-90,0s-60,0-90,0s-60,0-90,0s-60,0-90,0
		s-60,0-90,0s-60,0-90,0s-60,0-90,0s-60,0-75,0H0v-327H-0.1z"/>
	<path class="st4" d="M900.6,599.6h-15c-15,0-45,0-75,0s-60,0-90,0s-60,0-90,0s-60,0-90,0s-60,0-90,0s-60,0-90,0s-60,0-90,0
		s-60,0-90,0s-60,0-90,0s-60,0-75,0h-15V363.5l15-3.3c15-3.1,45.3-7.3,75-11.8c47-7.1,82.1,4.1,93.2,8.1
		c28.9,13.2,55.5,53.2,87.9,55.2c28.4,1.7,65.6-4.1,76.6-9.5c20.8-7.2,55.3-38.4,81.3-54.2c26.6-16.6,56.3-14.1,99.6-2.7
		c42.7,9.3,45,31.4,77.2,24.1c35.1-7.5,35.1-7.5,72.4-24.3c21.6-10.6,26.1-36,67.6-29.6c8.6,1.4,15.4,3.7,31.4,8.8
		c41.6,13.3,83.6,13.6,108.4,46.3l14.5,18.5L900.6,599.6L900.6,599.6z"/>
	<path class="st5" d="M0.8,450.3l22.4,21.9C46,490.3,64.4,490.5,85.4,490c41.8-2.7,100.7-59.3,128-78.2c27-16.6,69-14.2,92.4-8.8
		c27.6,6.4,96.9,25.2,130.7,19.3c79.6-15.1,72.8,41,100.1,52.4c17.2,8.5,32.7,11.7,56,10.5c30-5.3,38.7,7.3,68.7,15.3
		s28.8,20.9,58.8,26.3s60,7.1,90-0.3c30-7.5,60-24,75-32.3l15-8.3v113.9h-15c-15,0-45,0-75,0s-60,0-90,0s-60,0-90,0s-60,0-90,0
		s-60,0-90,0s-60,0-90,0s-60,0-90,0s-60,0-90,0s-60,0-90,0s-60,0-75,0l-14.2-0.2L0.8,450.3L0.8,450.3z"/>
	<path id="XMLID_00000181089738885365990740000010483678770683170226_" class="st6" d="M900.3,600.4h-15c-15,0-45,0-75,0s-60,0-90,0
		s-60,0-90,0s-60,0-90,0s-60,0-90,0s-60,0-90,0s-60,0-90,0s-60,0-90,0s-60,0-90,0s-60,0-75,0h-15v-64.1l15-2.3
		c15-2.2,34.3-17.1,64.3-16.1c30.1,0.9,36.7,1.8,61.6,5.9c33.2,6.9,53.8,12.5,83.7,10.8c36.6-2,67.7-32.7,98.8-35.2
		c29.9-2.4,86,20.6,116,22.1c30,1.4,81.4-5.2,111.4-4.4s49.1,17.9,79.1,11.1s60-16.1,90-12.1s60,21.7,90,26.9s60-1.8,75-5.5l15-3.6
		v66.5L900.3,600.4L900.3,600.4z"/>
</g>
</svg>
