<?xml version="1.0" encoding="UTF-8"?>
<svg id="Layer_1" data-name="Layer 1" xmlns="http://www.w3.org/2000/svg" viewBox="0 0 504.62 310.81">
  <defs>
    <style>
      .cls-1 {
        fill: none;
        stroke: white;
        stroke-miterlimit: 10;
        stroke-width: 3px;
      }
    </style>
  </defs>
  <path class="cls-1" d="M300.77,211.69c-11.66,38.03-51.66,79.36-96.46,90.59-43.6,10.93-77.87,10.1-117.26-9.58S22.59,243.2,9.49,203.23C-3.61,163.27-.6,124.52,18.52,86.99c12.75-25.02,30.61-45.12,53.6-60.31C95.1,11.49,120.12,3.17,147.19,1.73c27.06-1.45,52.76,4.03,77.08,16.42,39.43,20.09,70.03,66.14,83.19,105.99M155.68,30.69c-21.62,0-42.12,5.63-61.48,16.9-19.37,11.27-34.49,26.44-45.37,45.52-10.88,19.09-16.31,40.36-16.31,63.82,0,34.73,12.04,64.05,36.11,87.98,24.07,23.92,53.09,35.88,87.05,35.88,22.68,0,43.67-5.5,62.97-16.5,19.3-11,34.35-26.04,45.17-45.13,10.81-19.09,16.22-40.29,16.22-63.62s-5.41-44.17-16.22-62.92c-10.81-18.75-26.03-33.76-45.66-45.03-19.63-11.27-40.46-16.9-62.48-16.9Z"/>
  <path class="cls-1" d="M307.38,125.24l51.46-108.29h7.15l136.28,292.22h-31.54l-45.96-96.15-125.31-.53m62.85-133.46l-50.07,105.78h99.9l-49.83-105.78Z"/>
</svg>