<?xml version="1.0" encoding="utf-8"?>
<!-- Generator: Adobe Illustrator 27.0.1, SVG Export Plug-In . SVG Version: 6.00 Build 0)  -->
<svg version="1.1" id="visual" xmlns="http://www.w3.org/2000/svg" xmlns:xlink="http://www.w3.org/1999/xlink" x="0px" y="0px"
	 viewBox="0 0 900 600" style="enable-background:new 0 0 900 600;" xml:space="preserve">
<style type="text/css">
	.st0{fill:#B87A7A;}
	.st1{fill:#B78096;}
	.st2{fill:#AB8AAF;}
	.st3{fill:#9797C0;}
	.st4{fill:#82A3C6;}
	.st5{fill:#76ADC3;}
	.st6{fill:#7AB5B8;}
</style>
<g>
	<path class="st0" d="M0,71.7l15-6.3c15-6.3,45-18.8,75-14c30,4.7,60,26.8,90,18.6s62.8-24.4,92.8-23.5S330,65.6,360,79.1
		s60,0.2,90-21.4c30-21.7,62.6-18,86.2-8.7c28.1,11.1,63.8,0.7,93.8,10.8s60-6.6,90-5.1s60,21.3,90,15.4c30-5.9,60-37.4,75-53.3
		L900,1v581.9h-15c-15,0-45,0-75,0s-60,0-90,0s-60,0-90,0s-60,0-90,0s-60,0-90,0s-60,0-90,0s-60,0-90,0s-60,0-90,0s-60,0-90,0
		s-60,0-75,0H0V71.7z"/>
	<path class="st1" d="M-0.1,82.3l17.8,12.1c20.7,13.6,40.7,23.1,72.2,43.5c31.2,20.2,70.3,39,115.6,39c41.3-9.8,61.8-20.4,93.8-36.9
		c79.1-40,120.8-37.1,150.8-37.8c30-0.8,40.3,23.6,64.3,31.1c36,9.3,43.1-1.8,69.8-19.1c42.2-27.1,54.7-15.6,68.9-8.4
		c30,6.2,36.8,22.2,66.8,27.3s60,34.1,90,35.8s60-23.8,75-36.5l15-12.8v480.3h-15c-15,0-45,0-75,0s-60,0-90,0s-60,0-90,0s-60,0-90,0
		s-60,0-90,0s-60,0-90,0s-60,0-90,0s-60,0-90,0s-60,0-90,0s-60,0-75,0h-15L-0.1,82.3L-0.1,82.3z"/>
	<path class="st2" d="M1.6,212.1l15-14.4c15-14.5,47.4-59.8,77.4-72.4s62.1-0.6,92.1,13.8c30,14.4,59.8,39.2,85.5,50.7
		c27.6,12.4,62,26.3,95.2,26.3c39.7,1.2,73.7-36.9,103.7-30.4s41.1,19.4,71.1,23.1c30,3.7,60,24,90,34.6c30,10.6,60,11.3,90-9.9
		s60-64,90-70.7s60,23.1,75,37.9l15,14.9v384.6h-15c-15,0-45,0-75,0s-60,0-90,0s-60,0-90,0s-60,0-90,0s-60,0-90,0s-60,0-90,0
		s-60,0-90,0s-60,0-90,0s-60,0-90,0s-60,0-75,0h-15L1.6,212.1L1.6,212.1z"/>
	<path class="st3" d="M-0.1,283.3l15,6.6c15,6.7,42.6,9.4,67.1-6.8c30.3-20.1,52.4-45.5,82.4-47.8s69.6,52.8,99.6,63
		c30,10.2,68.4-27,98.4-20.6c30,6.5,61.8,48.1,91.8,47.8c30-0.4,82-36,100.2-14.2c26.7,32,45.6,31.9,75.6,21.5
		c30-10.5,60-39.3,90-41.8c30-2.4,60,21.6,90,37.5c30,15.8,60,23.5,75,27.3l15,3.9v240.5h-15c-15,0-45,0-75,0s-60,0-90,0s-60,0-90,0
		s-60,0-90,0s-60,0-90,0s-60,0-90,0s-60,0-90,0s-60,0-90,0s-60,0-90,0s-60,0-75,0H0V283.3H-0.1z"/>
	<path class="st4" d="M900.6,599.6h-15c-15,0-45,0-75,0s-60,0-90,0s-60,0-90,0s-60,0-90,0s-60,0-90,0s-60,0-90,0s-60,0-90,0
		s-60,0-90,0s-60,0-90,0s-60,0-75,0h-15V361.2l15-3.3c15-3.1,45-9.8,75-11.9c30-2.1,59.1,27.6,90,14.8
		c35.3-14.6,57.2,29.6,89.6,31.6c28.4,1.7,50.8-10.1,61.8-15.5c11.4-6.8,14-8.4,35.1-25.9c22.6-18.6,51.5,2.4,99.6,12.9
		c42.7,9.4,107,2,139.6,3.4c35.6-6.3,35.6-6.3,72.4-24.5c21.6-10.7,26.1-36.4,67.6-29.9c8.6,1.4,15.4,3.7,31.4,8.9
		c41.6,13.4,83.6,13.7,108.4,46.7l14.5,18.7L900.6,599.6L900.6,599.6z"/>
	<path class="st5" d="M-0.2,447.2l34.9,18c24.9,9.4,43.5,13.3,68.8,7.7c68.1-15.2,100.5-30,124.1-24.8c20.7,1.9,53.3,22.7,64.8,25.2
		c20.5,5.5,43.4-7,73.5-21.1c92.1-44.5,145.6,29.6,156,38c12.4,10.1,20.4,12,43.7,10.9c30-4.9,34.2,3.2,64.2,10.6s60,15.7,90,20.7
		s60,6.6,90-0.3c30-6.9,60-22.2,75-29.9l15-7.7v105.3h-15c-15,0-45,0-75,0s-60,0-90,0s-60,0-90,0s-60,0-90,0s-60,0-90,0s-60,0-90,0
		s-60,0-90,0s-60,0-90,0s-60,0-90,0s-60,0-75,0h-15L-0.2,447.2L-0.2,447.2z"/>
	<path id="XMLID_00000181089738885365990740000010483678770683170226_" class="st6" d="M900.3,600.4h-15c-15,0-45,0-75,0s-60,0-90,0
		s-60,0-90,0s-60,0-90,0s-60,0-90,0s-60,0-90,0s-60,0-90,0s-60,0-90,0s-60,0-90,0s-60,0-75,0h-15v-55.6l15-2
		c15-1.9,35.2-19.6,65.2-18.8c30.1,0.8,30.6,1.2,60,6.7c30.9,7.4,54.5,12.5,84.5,12.6c30,0.1,80.5-15,110.5-14.5
		c30,0.5,76.7,8.4,106.7,9.7c30,1.2,79-11.1,109-10.4c30,0.7,49.1,15.5,79.1,9.6s60-14,90-10.5c30,3.5,60,18.8,90,23.3
		s60-1.6,75-4.8l15-3.1V600.4z"/>
</g>
</svg>
