<?xml version="1.0" encoding="utf-8"?>
<!-- Generator: Adobe Illustrator 27.0.1, SVG Export Plug-In . SVG Version: 6.00 Build 0)  -->
<svg version="1.1" id="visual" xmlns="http://www.w3.org/2000/svg" xmlns:xlink="http://www.w3.org/1999/xlink" x="0px" y="0px"
	 viewBox="0 0 900 600" style="enable-background:new 0 0 900 600;" xml:space="preserve">
<style type="text/css">
	.st0{fill:#B87A7A;}
	.st1{fill:#B78096;}
	.st2{fill:#AB8AAF;}
	.st3{fill:#9797C0;}
	.st4{fill:#82A3C6;}
	.st5{fill:#76ADC3;}
	.st6{fill:#7AB5B8;}
</style>
<g>
	<path class="st0" d="M0.1,71.4l15-6.3c15-6.3,45-18.8,75-14c30,4.7,60,26.8,90,18.6s62.8-24.4,92.8-23.5s57.2,19.1,87.2,32.6
		s65.4-9.5,96.5-25.5c40.3-19.9,78.3,13.5,101.9,22.8c28.1,11.1,41.6-26.7,71.6-16.6s60-6.6,90-5.1s60,21.3,90,15.4s60-37.4,75-53.3
		l15-15.8v581.9h-15c-15,0-45,0-75,0s-60,0-90,0s-60,0-90,0s-60,0-90,0c-30,0-60,0-90,0s-60,0-90,0s-60,0-90,0s-60,0-90,0
		s-60,0-90,0s-60,0-75,0h-15V71.4z"/>
	<path class="st1" d="M-0.1,82.3l17.8,12.1c20.7,13.6,40.7,23.1,72.2,43.5c31.2,20.2,70.3,39,115.6,39c41.3-9.8,61.8-20.4,93.8-36.9
		c79.1-40,120.8-37.1,150.8-37.8c30-0.8,40.3,23.6,64.3,31.1c36,9.3,43.1-1.8,69.8-19.1c42.2-27.1,54.7-15.6,68.9-8.4
		c30,6.2,36.8,22.2,66.8,27.3s60,34.1,90,35.8s60-23.8,75-36.5l15-12.8v480.3h-15c-15,0-45,0-75,0s-60,0-90,0s-60,0-90,0s-60,0-90,0
		s-60,0-90,0s-60,0-90,0s-60,0-90,0s-60,0-90,0s-60,0-90,0s-60,0-75,0h-15L-0.1,82.3L-0.1,82.3z"/>
	<path class="st2" d="M0.6,212.1l15-14.4c15-14.5,47.4-59.8,77.4-72.4s62.1-0.6,92.1,13.8s59.8,39.2,85.5,50.7
		c27.6,12.4,62,26.3,95.2,26.3c39.7,1.2,73.7-36.9,103.7-30.4s41.1,19.4,71.1,23.1c30,3.7,60,24,90,34.6s60,11.3,90-9.9
		s60-64,90-70.7s60,23.1,75,37.9l15,14.9v384.6h-15c-15,0-45,0-75,0s-60,0-90,0s-60,0-90,0s-60,0-90,0s-60,0-90,0s-60,0-90,0
		s-60,0-90,0s-60,0-90,0s-60,0-90,0s-60,0-75,0h-15L0.6,212.1L0.6,212.1z"/>
	<path class="st3" d="M-0.1,283.3l15,6.6c15,6.7,42.6,9.4,67.1-6.8c30.3-20.1,52.4-45.5,82.4-47.8s56.5,46.2,86.5,56.4
		c30,10.2,128.8-44.5,158.8-38.1c30,6.5,50.9,43.1,80.9,42.8c30-0.4,47.3-42.1,65.5-20.3c26.7,32,43.9,67.1,73.9,56.7
		c30-10.5,60-39.3,90-41.8c30-2.4,60,21.6,90,37.5c30,15.8,60,23.5,75,27.3l15,3.9v240.5h-15c-15,0-45,0-75,0s-60,0-90,0s-60,0-90,0
		s-60,0-90,0s-60,0-90,0s-60,0-90,0s-60,0-90,0s-60,0-90,0s-60,0-90,0s-60,0-75,0H0V283.3H-0.1z"/>
	<path class="st4" d="M900.6,599.6h-15c-15,0-45,0-75,0s-60,0-90,0s-60,0-90,0s-60,0-90,0s-60,0-90,0s-60,0-90,0s-60,0-90,0
		s-60,0-90,0s-60,0-90,0s-60,0-75,0h-15V351.4l15-3.4c15-3.2,45-10.2,75-12.4c30-2.2,72.4,6,90.4,10.5c34.7,9.5,56.8,35.7,89.2,37.8
		c28.4,1.8,56.8-1.4,67.8-7c20.8-7.6,26.7-11.9,52.7-28.4c22.6-19.4,57.4,0.8,105.5,11.7c42.7,9.8,77.5-3.8,110.1-2.4
		c35.6-6.6,35.6-6.6,72.4-25.5c21.6-11.1,26.1-37.9,67.6-31.1c8.6,1.5,15.4,3.9,31.4,9.3c41.6,14,83.6,14.3,108.4,48.6l14.5,19.5
		L900.6,599.6L900.6,599.6z"/>
	<path class="st5" d="M-0.2,434.7l34.9,19.5c24.9,10.2,43.3,5.2,68.6-0.9c68.1-16.4,100.7-23.2,124.3-17.6
		c20.7,2.1,53.3,24.6,64.8,27.3c20.5,5.9,43.4-7.6,73.5-22.8c92.1-48.1,145.6,32,156,41.1c12.4,10.9,20.4,13,43.7,11.8
		c30-5.3,34.2,3.5,64.2,11.5c30,8,60,17,90,22.4s60,7.1,90-0.3c30-7.5,60-24,75-32.3l15-8.3v113.9h-15c-15,0-45,0-75,0s-60,0-90,0
		s-60,0-90,0s-60,0-90,0s-60,0-90,0s-60,0-90,0s-60,0-90,0s-60,0-90,0s-60,0-90,0s-60,0-75,0h-15L-0.2,434.7L-0.2,434.7z"/>
	<path id="XMLID_00000181089738885365990740000010483678770683170226_" class="st6" d="M900.3,600.4h-15c-15,0-45,0-75,0s-60,0-90,0
		s-60,0-90,0s-60,0-90,0s-60,0-90,0s-60,0-90,0s-60,0-90,0s-60,0-90,0s-60,0-90,0s-60,0-75,0h-15v-64.1l15-2.3
		c15-2.2,34.3-17.1,64.3-16.1c30.1,0.9,36.7,1.8,61.6,5.9c30.9,8.5,53.7,10.7,83.7,10.8c30,0.1,80.5-17.3,110.5-16.7
		c30,0.6,76.7,9.7,106.7,11.2c30,1.4,79-12.8,109-12c30,0.8,49.1,17.9,79.1,11.1s60-16.1,90-12.1c30,4,60,21.7,90,26.9
		c30,5.2,60-1.8,75-5.5l15-3.6V600.4z"/>
</g>
</svg>
